<svg width="500" height="500" viewBox="0 0 500 500" fill="none" xmlns="http://www.w3.org/2000/svg">
<path d="M244.552 68.6868C278.243 64.9539 314.78 76.6341 336.047 98.9267H336.049C370.702 135.266 360.176 174.324 341.821 189.543L341.818 189.54C330.234 199.159 317.225 201.94 304.089 199.659C291.712 197.51 279.774 190.988 268.778 183.312L268.772 183.306C232.888 158.216 266.169 181.535 198.209 133.862V133.859C196.959 132.983 195.727 132.15 194.513 131.353C192.814 135.055 191.365 139.069 190.199 143.408L190.196 143.423C185.715 160.025 189.392 171.605 196.936 181.67C204.178 191.332 214.944 199.571 227.486 208.461L232.964 212.317C259.231 230.726 271.737 239.491 277.289 243.382C277.567 243.576 277.826 243.759 278.069 243.929C278.073 243.932 278.078 243.933 278.081 243.935C278.117 243.959 278.175 243.995 278.195 244.009C278.228 244.032 278.255 244.052 278.264 244.058C278.288 244.074 278.311 244.09 278.327 244.101C278.363 244.126 278.412 244.16 278.471 244.201C278.591 244.286 278.777 244.416 279.035 244.597C279.553 244.959 280.38 245.538 281.621 246.407C286.592 249.888 298.225 258.038 323.323 275.624C357.157 299.327 371.571 327.29 365.679 355.491C363.52 365.823 358.762 375.355 352.161 383.972C370.554 389.03 386.802 390.321 399.789 390.321C407.085 390.321 413 396.232 413 403.523C412.999 410.813 407.085 416.725 399.789 416.725C381.416 416.724 357.493 414.431 330.516 404.812C324.087 409.55 317.097 413.805 309.777 417.521L309.774 417.524C286.697 429.231 255.25 432.783 225.032 430.204C195.649 427.697 165.331 419.219 142.568 404.571L140.389 403.133C123.815 391.932 105.475 375.833 95.1896 356.468C89.9599 346.622 86.5966 335.513 87.0389 323.607C87.4837 311.639 91.7418 299.817 100.224 288.611C100.246 288.581 100.271 288.55 100.296 288.517C100.41 288.36 100.553 288.171 100.723 287.952C101.062 287.514 101.513 286.954 102.079 286.305C103.208 285.011 104.813 283.338 106.912 281.535C111.106 277.932 117.391 273.716 125.883 271.083C143.539 265.61 167.372 267.928 196.999 288.68L197.002 288.683C291.337 354.788 230.085 311.885 292.174 355.362C303.65 363.341 314.832 369.551 325.551 374.369C333.284 366.505 338.123 358.185 339.814 350.094C342.622 336.652 337.598 318.793 310.818 299.152L308.157 297.246C283.057 279.658 271.426 271.511 266.458 268.032C266.418 268.004 266.377 267.977 266.338 267.949H266.335C266.285 267.916 266.216 267.867 266.195 267.852L266.028 267.737C265.705 267.511 264.597 266.736 262.121 265.001C256.567 261.11 244.062 252.342 217.795 233.933C203.78 224.111 187.069 212.552 175.787 197.499C163.774 181.472 157.923 161.608 164.68 136.558C166.27 130.644 168.265 125.157 170.606 120.079C163.583 118.165 156.167 117.334 147.525 117.334C140.229 117.334 134.314 111.423 134.314 104.132C134.315 96.8418 140.229 90.9308 147.525 90.9305C161.905 90.9305 174.068 92.9016 185.709 97.2278C201.458 80.0761 222.782 71.0991 244.552 68.6868ZM179.551 308.735C156.225 293.084 141.5 293.887 133.712 296.301C129.357 297.651 126.186 299.795 124.137 301.555C123.115 302.433 122.401 303.193 121.992 303.661L121.631 304.091L121.577 304.174L121.399 304.409C115.787 311.773 113.666 318.505 113.44 324.587C113.209 330.801 114.927 337.312 118.526 344.089C125.899 357.97 140.206 371.135 155.191 381.262H155.188C173.362 393.542 199.944 401.562 227.279 403.895C254.724 406.237 280.698 402.661 297.811 393.98L300.053 392.816C300.557 392.549 301.054 392.274 301.549 392.003C293.533 387.745 285.347 382.784 277.046 377.01L277.011 376.987C214.922 333.51 276.145 376.388 181.836 310.302L179.551 308.735ZM316.921 117.142C302.196 101.709 274.267 91.9599 247.462 94.9301C233.675 96.458 220.695 101.257 210.31 110.143C211.329 110.826 212.355 111.526 213.386 112.249L213.389 112.252C281.345 159.921 248.058 136.599 283.909 161.667C293.757 168.542 301.901 172.48 308.613 173.645C314.563 174.678 319.646 173.629 324.94 169.23L324.949 169.225C330.725 164.436 341.746 143.174 316.921 117.142Z" fill="black"/>
</svg>
